HIERARCHY
ROOT Hips
{
  OFFSET 0.0 0.0 0.0
  CHANNELS 6 Xposition Yposition Zposition Zrotation Xrotation Yrotation
  JOINT LeftHipJoint
  {
    OFFSET 0.1 0.0 0.0
    CHANNELS 3 Zrotation Xrotation Yrotation
    JOINT LeftUpLeg
    {
      OFFSET 112.73749950871466 0.0 0.0
      CHANNELS 3 Zrotation Xrotation Yrotation
      JOINT LeftLeg
      {
        OFFSET 0.0 0.0 -426.7810091730365
        CHANNELS 3 Zrotation Xrotation Yrotation
        JOINT LeftFoot
        {
          OFFSET 0.0 0.0 -427.63698234942717
          CHANNELS 3 Zrotation Xrotation Yrotation
          End Site
          {
            OFFSET 0.0 -0.1 0.0
          }
        }
      }
    }
  }
  JOINT LowerBack
  {
    OFFSET 0.0 0.0 0.1
    CHANNELS 3 Zrotation Xrotation Yrotation
    JOINT Spine
    {
      OFFSET 0.0 0.0 223.78923198234315
      CHANNELS 3 Zrotation Xrotation Yrotation
      JOINT Spine1
      {
        OFFSET 0.0 0.0 247.38230325529602
        CHANNELS 3 Zrotation Xrotation Yrotation
        JOINT LeftShoulder
        {
          OFFSET 0.1 0.0 0.0
          CHANNELS 3 Zrotation Xrotation Yrotation
          JOINT LeftArm
          {
            OFFSET 132.89515101972268 0.0 0.0
            CHANNELS 3 Zrotation Xrotation Yrotation
            JOINT LeftForeArm
            {
              OFFSET 249.2823710433705 0.0 0.0
              CHANNELS 3 Zrotation Xrotation Yrotation
              JOINT LeftHand
              {
                OFFSET 230.71245124876611 0.0 0.0
                CHANNELS 3 Zrotation Xrotation Yrotation
                End Site
                {
                  OFFSET 0.1 0.0 0.0
                }
              }
            }
          }
        }
        JOINT Neck
        {
          OFFSET 0.0 0.0 0.1
          CHANNELS 3 Zrotation Xrotation Yrotation
          JOINT Neck1
          {
            OFFSET 0.0 0.0 112.87377832920434
            CHANNELS 3 Zrotation Xrotation Yrotation
            End Site
            {
              OFFSET 0.0 0.0 112.62455441679761
            }
          }
        }
        JOINT RightShoulder
        {
          OFFSET -0.1 0.0 0.0
          CHANNELS 3 Zrotation Xrotation Yrotation
          JOINT RightArm
          {
            OFFSET -132.89515101972268 0.0 0.0
            CHANNELS 3 Zrotation Xrotation Yrotation
            JOINT RightForeArm
            {
              OFFSET -249.2823710433705 0.0 0.0
              CHANNELS 3 Zrotation Xrotation Yrotation
              JOINT RightHand
              {
                OFFSET -230.71245124876611 0.0 0.0
                CHANNELS 3 Zrotation Xrotation Yrotation
                End Site
                {
                  OFFSET -0.1 0.0 0.0
                }
              }
            }
          }
        }
      }
    }
  }
  JOINT RightHipJoint
  {
    OFFSET -0.1 0.0 0.0
    CHANNELS 3 Zrotation Xrotation Yrotation
    JOINT RightUpLeg
    {
      OFFSET -112.73749950871466 0.0 0.0
      CHANNELS 3 Zrotation Xrotation Yrotation
      JOINT RightLeg
      {
        OFFSET 0.0 0.0 -426.7810091730365
        CHANNELS 3 Zrotation Xrotation Yrotation
        JOINT RightFoot
        {
          OFFSET 0.0 0.0 -427.63698234942717
          CHANNELS 3 Zrotation Xrotation Yrotation
          End Site
          {
            OFFSET 0.0 -0.1 0.0
          }
        }
      }
    }
  }
}
MOTION
Frames: 5
Frame Time: 0.03333333333333333
2500.0 5000.0 866.4208163898469 40.99026621003099 -1.524997245527804 3.9394922395880103 0.0 0.0 1.987846675914698e-16 0.004402300654726278 -3.5768166448692864 -6.063259456376358 -1.128677182051452 10.506784424721118 -0.17289146473294556 0.0 0.0 0.0 0.0 0.0 1.987846675914698e-16 0.00020693950309243127 6.225937815326544 0.0006999170141848307 -0.29613642035771326 -1.5411426860393482e-18 5.963520114028976e-16 0.0 0.0 -3.975693351829396e-16 -24.46737898842461 25.69702916479622 78.43270121369939 -51.20777451296542 7.540456711166926e-15 -1.0156237732367188e-15 7.951386703658792e-16 -1.2414111463266072e-32 -1.7890620083232284e-15 0.0 0.0 -3.975693351829396e-16 -6.045655876537187 20.287706598380908 2.071135508054986 0.0 0.0 -3.975693351829396e-16 8.461822956868762 21.641275182430157 -67.64376061645441 85.33285006674008 -8.988506836454926e-15 -3.662915576954442e-16 0.0 0.0 1.987846675914698e-16 0.0 0.0 1.987846675914698e-16 -0.0044467807848398945 -0.11611463172426728 -4.311819644876771 -0.5349235805004128 7.063839622840365 1.4147460169948447 0.0 0.0 1.987846675914698e-16
2500.0 5000.0 866.4208163898469 41.305183740493376 -0.8215955248364256 3.483456869355183 0.0 0.0 -9.93923337957349e-17 0.033812086924208236 -4.630265279053096 -5.529683124477783 -1.044167381677725 10.010457114940543 -0.07279265842184704 0.0 0.0 0.0 0.0 0.0 -9.93923337957349e-17 -0.03848183156299386 6.06963507460147 0.754616396384805 -0.5906915748003528 -3.893665971534087e-16 -1.5923055767483369e-15 0.0 0.0 -1.987846675914698e-16 -25.87678715625384 26.073123121312484 78.79772551960029 -51.67164163752089 -7.984055372195462e-16 7.122674770647866e-15 -7.951386703658792e-16 -2.758691436281349e-33 3.975693351829396e-16 0.0 0.0 -1.987846675914698e-16 -6.0797424171542715 20.277977209756433 1.7606012876645516 0.0 0.0 -1.987846675914698e-16 8.041482622626772 20.954396470663465 -66.84731081666024 86.58816770453484 0.0 0.0 0.0 0.0 -1.5902773407317584e-15 0.0 0.0 -9.93923337957349e-17 0.002023470166040758 -1.0182434378463945 -3.6620784616213977 -0.5008847620600414 7.086254009632099 1.2910960649421095 0.0 0.0 1.987846675914698e-16
2500.0 5000.0 866.4208163898469 40.473398420894945 0.6164618352889731 3.4475538270844863 0.0 0.0 1.2424041724466862e-16 0.11932031861058572 -7.086697189629076 -5.587168899833349 -1.288810614131465 11.133269663839773 -0.15277324024129726 -6.3611093629270335e-15 0.0 0.0 0.0 0.0 1.2424041724466862e-16 -0.08738264242842252 5.399130444285454 0.6631001003993628 -0.3836988225330141 -7.944686027873673e-16 -2.0144599367015944e-16 0.0 0.0 0.0 -25.65334121560631 26.168452520788986 78.00126677448877 -53.50868809299986 -1.9804429274811014e-15 7.461031072695143e-15 0.0 0.0 0.0 0.0 0.0 0.0 -3.170032688056341 19.438632615740563 -1.2840540511302618 0.0 0.0 0.0 6.246654061813856 20.933867213182022 -64.89776527975755 88.79001752875894 4.4502390925514054e-15 4.545226545095988e-15 0.0 0.0 -1.5654292572828246e-15 0.0 0.0 1.2424041724466862e-16 0.04837226379603887 -3.259748601724123 -3.914659136438486 -0.6928729118359229 8.12875489263203 1.4667395965166135 -6.3611093629270335e-15 -1.1034765745125397e-32 1.987846675914698e-16
2500.0 5000.0 866.4208163898469 40.120016355311485 1.5369198762478085 2.973946994228069 0.0 0.0 -1.987846675914698e-16 0.22394340531237705 -8.448581403988124 -5.066708082827175 -1.2788216106888552 10.978741852140667 -0.20839898892143102 0.0 0.0 0.0 0.0 0.0 -1.987846675914698e-16 -0.14500275993976994 5.600895772653135 1.9315426052604787 0.01721336012471674 -1.1928572941913607e-15 -9.937441642248695e-16 0.0 0.0 -3.975693351829396e-16 -24.796325793270096 26.343307844200627 77.68023243490676 -52.16262254989777 -2.796637737408874e-15 5.713364130949344e-15 -7.951386703658792e-16 -1.3793457181406746e-32 1.987846675914698e-15 0.0 0.0 -3.975693351829396e-16 -2.6153555976531906 19.002041233405226 -2.476375117489639 0.0 0.0 -3.975693351829396e-16 5.898106522976834 19.529758738505286 -63.985700437649946 88.12638354022724 0.0 0.0 0.0 0.0 -1.5902773407317584e-15 0.0 0.0 -1.987846675914698e-16 0.11285477304891715 -4.527251954782335 -3.3719100656270484 -0.6696759565184061 7.837333577791955 1.8560041046232327 0.0 0.0 -1.9878466759146977e-16
2500.0 5000.0 866.4208163898469 40.1171446676763 2.5384977843558008 2.942659731568366 0.0 0.0 2.981770013872047e-16 0.3346861622911416 -9.993491191982772 -4.674073869990646 -1.2881066470037847 11.027972254651226 -0.5343965842218429 0.0 0.0 0.0 0.0 0.0 2.981770013872047e-16 -0.1921794321520875 5.848371651505431 2.2511793326363922 -0.21267537478017903 1.5887988708443e-15 7.980887629580865e-16 -6.3611093629270335e-15 2.2069531490250793e-32 -3.975693351829396e-16 -24.457416202420635 25.56761874754375 76.88188904342624 -52.12378446905693 2.613684766241117e-15 -1.620323277818867e-14 -7.951386703658792e-16 -9.655420026984722e-33 1.3914926731402886e-15 -6.3611093629270335e-15 2.2069531490250793e-32 -3.975693351829396e-16 -2.4235686857006677 18.624953912432666 -3.4227946462146903 -6.3611093629270335e-15 2.2069531490250793e-32 -3.975693351829396e-16 5.285068162640152 18.088367852556328 -62.28014790461629 88.06172252096418 1.7837204041765885e-14 9.29899323817318e-15 0.0 0.0 -1.5902773407317584e-15 0.0 0.0 2.981770013872047e-16 0.19897511619022662 -6.174042877099258 -2.912638526418135 -0.7042146529186252 8.33073116021908 1.3871463545084433 -6.361109362927033e-15 -7.951386703658791e-16 -1.987846675914698e-16
